<svg viewBox="0 0 1024 1024" class="icon" version="1.1" xmlns="http://www.w3.org/2000/svg" fill="#000000"><g id="SVGRepo_bgCarrier" stroke-width="0"></g><g id="SVGRepo_tracerCarrier" stroke-linecap="round" stroke-linejoin="round"></g><g id="SVGRepo_iconCarrier"><path d="M249.2 159.2H773v75.4H249.2zM253 789h520.1v75.4H253zM119.2 308.7h66.9v405.8h-66.9zM839.9 308.7h66.9v405.8h-66.9z" fill="#35D335"></path><path d="M186.1 234.6H253V310h-66.9zM706.2 549.5v72H319.8v-72H253v75.4h66.8v72h386.4v-72H773v-75.4zM186.1 713.6H253V789h-66.9zM349.5 335.6h66.9V411h-66.9zM609.6 335.6h66.9V411h-66.9zM773 234.6h66.9V310H773zM773 713.6h66.9V789H773zM947.6 411h66.9v75.4h-66.9zM947.6 536.7h66.9v75.4h-66.9zM11.5 411h66.9v75.4H11.5zM11.5 536.7h66.9v75.4H11.5z" fill="#35D335"></path></g></svg>